# xmcd
#
# Track frame offsets:
#	225
#	16357
#	35095
#	50008
#	65450
#	77175
#	90131
#	105045
#	116371
#	128736
#	140936
#	155484
#	167438
#	179304
#	192045
#	210834
#	223400
#	235610
#	247205
#	255851
#	267514
#	279199
#	293275
#	304467
#
# Disc length: 4220 seconds
#
# Revision: 0
# Processed by: cddbd v1.5.2PL0 Copyright (c) Steve Scherf et al.
# Submitted via: audiograbber 1.83.01
#
DISCID=49107918
DTITLE=Tina Turner - Sings Country
DYEAR=1900
DGENRE=Country
TTITLE0=Lay It Down
TTITLE1=Lovin Him Was Easier
TTITLE2=Good Hearted Woman
TTITLE3=If This Was Our Last Time
TTITLE4=Stand By Your Man
TTITLE5=Freedom To Stay
TTITLE6=We Had It All
TTITLE7=Sould Deep
TTITLE8=If This Is Allright With Youe
TTITLE9=You Aint Woman Enough To Take A Man
TTITLE10=Medley
TTITLE11=Proud Mary
TTITLE12=Knock On Wood
TTITLE13=Get Back
TTITLE14=Ode To Billy Joe
TTITLE15=Shame, Shame, Shame
TTITLE16=Ya Ya
TTITLE17=Somethings To A Hold On You
TTITLE18=The Locomotion
TTITLE19=When I Lost My Baby
TTITLE20=Louie Louie
TTITLE21=Lean On Me
TTITLE22=Aint That Ashame
TTITLE23=Stagger Lee
EXTD=
EXTT0=
EXTT1=
EXTT2=
EXTT3=
EXTT4=
EXTT5=
EXTT6=
EXTT7=
EXTT8=
EXTT9=
EXTT10=
EXTT11=
EXTT12=
EXTT13=
EXTT14=
EXTT15=
EXTT16=
EXTT17=
EXTT18=
EXTT19=
EXTT20=
EXTT21=
EXTT22=
EXTT23=
PLAYORDER=
